<svg width="30" height="31" viewBox="0 0 30 31" fill="none" xmlns="http://www.w3.org/2000/svg">
<path d="M13.5 30.6002C10.4 30.3002 7.8 29.2002 5.5 27.3002C6.2 26.6002 6.9002 25.9002 7.7002 25.2002C9.0002 26.2002 10.6999 27.0002 12.3999 27.4002C13.4999 27.6002 13.5 27.6002 13.5 28.7002C13.5 29.3002 13.5 29.9002 13.5 30.6002V30.6002Z" fill="white"/>
<path d="M7.7002 5.9996C6.9002 5.2996 6.2 4.5996 5.5 3.8996C7.76667 2.03293 10.3999 0.932943 13.3999 0.599609C13.3999 1.59961 13.3999 2.59961 13.3999 3.59961C11.2999 3.99961 9.3002 4.6996 7.7002 5.9996V5.9996Z" fill="white"/>
<path d="M29.9995 17.0996C29.6662 20.0996 28.5664 22.7329 26.6997 24.9996C25.9997 24.2996 25.3996 23.5996 24.5996 22.8996C25.7996 21.1996 26.6995 19.2996 26.9995 17.0996C27.9995 17.0996 28.9995 17.0996 29.9995 17.0996V17.0996Z" fill="white"/>
<path d="M24.5996 8.19962C25.2663 7.53295 25.9664 6.83294 26.6997 6.09961C28.5997 8.39961 29.6995 10.9996 29.9995 14.0996C29.0662 14.0996 28.133 14.0996 27.1997 14.0996C27.0997 14.0996 26.8994 13.8996 26.8994 13.7996C26.5994 12.7996 26.3996 11.7996 26.0996 10.8996C25.6996 9.8996 25.0996 9.09962 24.5996 8.19962Z" fill="white"/>
<path d="M16.5 30.6002C16.5 29.5002 16.5 28.6002 16.5 27.6002C18.7 27.2002 20.5998 26.5002 22.2998 25.2002C22.9998 25.9002 23.7 26.6002 24.5 27.3002C22.2 29.2002 19.5 30.3002 16.5 30.6002V30.6002Z" fill="white"/>
<path d="M2.8999 14.0996C1.9999 14.0996 1.1 14.0996 0 14.0996C0.2 10.9996 1.4002 8.39961 3.2002 6.09961C4.0002 6.83294 4.73324 7.53295 5.3999 8.19962C4.7999 9.09962 4.2999 9.9996 3.8999 10.9996C3.4999 11.9996 3.1999 12.9996 2.8999 14.0996V14.0996Z" fill="white"/>
<path d="M5.3999 22.8996C4.6999 23.5996 3.9998 24.3996 3.2998 25.0996C1.3998 22.7996 0.3 20.1996 0 17.0996C1 17.0996 2 17.0996 3 17.0996C3.3 19.2996 4.0999 21.1996 5.3999 22.8996V22.8996Z" fill="white"/>
<path d="M24.5 3.8996C23.7667 4.63293 23.0666 5.33294 22.3999 5.9996C21.4999 5.4996 20.6001 4.8996 19.6001 4.4996C18.6001 4.0996 17.6 3.7996 16.5 3.4996C16.5 2.63294 16.5 1.66628 16.5 0.599609C19.5 0.899609 22.2 1.9996 24.5 3.8996V3.8996Z" fill="white"/>
</svg>
