<svg width="39" height="39" viewBox="0 0 39 39" fill="none" xmlns="http://www.w3.org/2000/svg">
<path d="M17.5 3.70046C17.4333 2.6338 17.3335 1.56712 17.2002 0.500451C21.4002 -0.499549 29.8 1.20046 35 8.20046C39.9 14.9005 40 24.2005 35 31.0005C30.3 37.5005 22.5002 39.7004 17.2002 38.8004C17.3002 37.8004 17.4 36.7005 17.5 35.6005C23.6 36.0005 28.6002 34.0005 32.2002 29.1005C34.7002 25.9005 35.5998 22.2005 35.2998 18.1005C34.4998 9.90046 27.2 2.80046 17.5 3.70046V3.70046Z" fill="white"/>
<path d="M8.90039 20.8998C9.70039 19.9998 10.4007 19.1998 11.2007 18.3998C13.2007 20.1998 15.2003 21.9998 17.3003 23.7998C20.3003 19.2998 23.3004 14.7998 26.4004 10.2998C27.3004 10.8998 28.2007 11.4998 29.2007 12.0998C25.4007 17.6998 21.7005 23.2998 18.0005 28.8998C15.0005 26.1998 12.0004 23.5998 8.90039 20.8998V20.8998Z" fill="white"/>
<path d="M7.90039 8.39999C7.20039 9.29999 6.50068 10.1 5.70068 11.1C4.80068 10.5 3.90039 9.89999 2.90039 9.29999C3.76706 8.16665 4.63382 7.06667 5.50049 6C6.40049 6.8 7.10039 7.59999 7.90039 8.39999V8.39999Z" fill="white"/>
<path d="M10.7998 33.2002C11.8998 33.8002 12.9 34.3002 14 34.8002C13.7 35.8002 13.2999 36.8002 12.8999 38.0002C11.5999 37.4002 10.3 36.8002 9 36.1002C9.6 35.1002 10.1998 34.1002 10.7998 33.2002V33.2002Z" fill="white"/>
<path d="M12.8999 1.2998C13.2999 2.3998 13.6 3.39982 14 4.49982C13 4.99982 11.8998 5.49982 10.7998 6.09982C10.1998 5.09982 9.6 4.19983 9 3.19983C10.3 2.49983 11.5999 1.8998 12.8999 1.2998V1.2998Z" fill="white"/>
<path d="M3.2998 21.4004C3.5998 22.7004 3.9002 23.8004 4.2002 25.0004C3.1002 25.3004 2.1 25.7004 1 26.1004C0.6 24.6004 0.3 23.3004 0 21.8004C1.2 21.7004 2.2998 21.6004 3.2998 21.4004V21.4004Z" fill="white"/>
<path d="M5.70068 28.2002C6.50068 29.2002 7.20039 30.1002 7.90039 30.9002C7.10039 31.7002 6.30049 32.5002 5.50049 33.3002C4.70049 32.2335 3.83372 31.1335 2.90039 30.0002C3.90039 29.4002 4.80068 28.8002 5.70068 28.2002V28.2002Z" fill="white"/>
<path d="M3.2998 17.8002C2.2998 17.7002 1.2 17.6002 0 17.5002C0.3 16.0002 0.6 14.7002 1 13.2002C2.1 13.6002 3.1002 14.0002 4.2002 14.3002C3.9002 15.5002 3.5998 16.6002 3.2998 17.8002Z" fill="white"/>
</svg>
