<svg width="30" height="29" viewBox="0 0 30 29" fill="none" xmlns="http://www.w3.org/2000/svg">
<path fill-rule="evenodd" clip-rule="evenodd" d="M0.899576 14.5002C0.899576 6.40016 7.39948 -0.099838 15.2995 0.000161985C23.3995 0.100162 29.8995 6.60017 29.7995 14.7002C29.6995 22.6002 23.1999 29.0002 15.1999 29.0002C7.29987 28.9002 0.799576 22.4002 0.899576 14.5002ZM11.6999 24.4002C16.6999 19.4002 21.6999 14.4002 26.6999 9.40016C25.6999 8.40016 24.5997 7.40015 23.4997 6.30015C19.5663 10.1668 15.5998 14.1335 11.5998 18.2002C9.99977 16.6002 8.49967 15.1002 6.99967 13.6002C5.99967 14.6002 4.96624 15.6002 3.89958 16.6002C6.49958 19.2002 9.09987 21.8002 11.6999 24.4002Z" fill="white"/>
<path d="M11.7007 24.3998C9.10068 21.7998 6.50039 19.1998 3.90039 16.5998C4.96706 15.5998 6.00049 14.5998 7.00049 13.5998C8.50049 15.0998 10.0006 16.5998 11.6006 18.1998C15.6006 14.1332 19.5672 10.1665 23.5005 6.2998C24.6005 7.3998 25.7007 8.39981 26.7007 9.39981C21.7007 14.3998 16.7007 19.3998 11.7007 24.3998Z" fill="#E3E935"/>
</svg>
