<svg width="30" height="30" viewBox="0 0 30 30" fill="none" xmlns="http://www.w3.org/2000/svg">
<path fill-rule="evenodd" clip-rule="evenodd" d="M3.30364 26.7681C3.77263 27.2369 4.40837 27.5003 5.07142 27.5003H18.9293C19.5923 27.5003 20.2281 27.2369 20.6971 26.7681L20.7681 26.6971C21.2369 26.2281 21.5003 25.5924 21.5003 24.9293V11.0714C21.5003 10.4084 21.2369 9.77265 20.7681 9.30366L20.6971 9.23262C20.2281 8.76387 19.5923 8.50044 18.9293 8.50044H5.07142C4.40837 8.50044 3.77264 8.76386 3.30364 9.23262L3.2326 9.30366C2.76386 9.77264 2.50043 10.4084 2.50043 11.0714V24.9293C2.50043 25.5924 2.76385 26.2281 3.2326 26.6971L3.30364 26.7681ZM22.5352 7.53661L22.4641 7.46532C21.5266 6.52784 20.2549 6.00098 18.9288 6.00098H5.07094C3.74478 6.00098 2.47312 6.52782 1.53563 7.46532L1.46435 7.53661C0.526865 8.47409 0 9.74607 0 11.0719V24.9298C0 26.2557 0.526846 27.5276 1.46435 28.4653L1.53563 28.5361C2.47312 29.4739 3.74484 30.0007 5.07094 30.0007H18.9288C20.255 30.0007 21.5266 29.4739 22.4641 28.5361L22.5352 28.4653C23.4729 27.5276 23.9998 26.2557 23.9998 24.9298V11.0719C23.9998 9.74601 23.4729 8.47409 22.5352 7.53661V7.53661Z" fill="#4D4D4D"/>
<path fill-rule="evenodd" clip-rule="evenodd" d="M23.9999 21.4998H24.9288C25.5919 21.4998 26.2276 21.2364 26.6966 20.7676L26.7676 20.6966C27.2364 20.2276 27.4998 19.5919 27.4998 18.9288V5.07094C27.4998 4.40789 27.2364 3.77215 26.7676 3.30316L26.6966 3.23212C26.2276 2.76338 25.5919 2.49995 24.9288 2.49995H11.0709C10.4079 2.49995 9.77216 2.76337 9.30317 3.23212L9.23213 3.30316C8.76339 3.77215 8.49995 4.40789 8.49995 5.07094V5.99986H6V5.07094C6 3.74478 6.52685 2.47312 7.46435 1.53563L7.53563 1.46435C8.47312 0.526865 9.74484 0 11.0709 0H24.9288C26.2547 0 27.5266 0.526846 28.4644 1.46435L28.5352 1.53563C29.4729 2.47312 29.9998 3.74484 29.9998 5.07094V18.9288C29.9998 20.255 29.4729 21.5266 28.5352 22.4641L28.4644 22.5352C27.5266 23.4729 26.2547 23.9998 24.9288 23.9998H23.9999L23.9999 21.4998Z" fill="#4D4D4D"/>
</svg>
