<svg width="23" height="18" viewBox="0 0 23 18" fill="none" xmlns="http://www.w3.org/2000/svg">
<path d="M23 3.7998C23 4.0998 23 4.1998 23 4.2998C23 8.03314 23 11.7665 23 15.4998C23 15.8998 22.9002 16.3998 22.7002 16.6998C22.5002 17.2998 21.9998 17.5998 21.2998 17.5998C14.7665 17.5998 8.23353 17.5998 1.7002 17.5998C0.700195 17.5998 0 16.7998 0 15.7998C0 12.3331 0 8.86651 0 5.39984C0 4.93317 0 4.43317 0 3.89984C0.133333 3.96651 0.267057 3.99982 0.400391 3.99982C3.86706 6.13315 7.33314 8.23314 10.7998 10.2998C11.2998 10.5998 11.7002 10.5998 12.2002 10.2998C15.6002 8.23314 19.0333 6.16646 22.5 4.09979C22.6 3.99979 22.8 3.9998 23 3.7998Z" fill="#9966FF"/>
<path d="M11.5 0C14.7667 0 18.0331 0 21.2998 0C22.1998 0 22.9 0.6 23 1.5C23 1.6 22.9002 1.80002 22.7002 1.90002C19.1002 4.10002 15.4335 6.3 11.7002 8.5C11.6002 8.6 11.4002 8.6 11.2002 8.5C7.53353 6.3 3.8998 4.10002 0.299805 1.90002C-0.000195324 1.80002 3.31056e-10 1.60002 3.31056e-10 1.40002C0.2 0.600024 0.900195 0 1.7002 0C4.96686 0 8.23333 0 11.5 0Z" fill="#9966FF"/>
</svg>
