<svg width="26" height="25" viewBox="0 0 26 25" fill="none" xmlns="http://www.w3.org/2000/svg">
<path d="M14.0999 24.3503C14.0999 21.1903 14.0999 18.0404 14.0999 14.8404C14.2299 14.8304 14.3599 14.8203 14.4799 14.8203C15.2499 14.8203 16.0299 14.8103 16.7999 14.8203C17.0799 14.8303 17.1899 14.7304 17.2299 14.4604C17.2999 13.9304 17.3899 13.3903 17.4699 12.8203C16.3399 12.8203 15.2399 12.8203 14.1699 12.8203C14.1199 12.7703 14.09 12.7503 14.09 12.7303C14.11 11.6903 14.0699 10.6403 14.1699 9.61031C14.2499 8.79031 14.6599 8.09033 15.4899 7.81033C15.8699 7.68033 16.3099 7.68031 16.7199 7.67031C17.6099 7.65031 17.6099 7.66035 17.6099 6.77035C17.6099 6.03035 17.6099 6.01032 16.8699 5.93032C15.9399 5.83032 14.9999 5.84032 14.0999 6.12032C12.7899 6.53032 12.11 7.52032 11.94 8.80032C11.79 9.93032 11.8299 11.0803 11.7899 12.2203C11.7799 12.4003 11.7899 12.5803 11.7899 12.8003C10.8199 12.8003 9.88997 12.8003 8.89997 12.8003C8.89997 13.4303 8.88992 14.0303 8.90992 14.6303C8.90992 14.7003 9.11993 14.8003 9.22993 14.8103C9.96993 14.8303 10.71 14.8303 11.44 14.8103C11.69 14.8103 11.78 14.8803 11.78 15.1403C11.77 18.1303 11.78 21.1103 11.77 24.1003C11.77 24.1803 11.7499 24.2703 11.7399 24.3503C6.62994 24.0003 1.12993 19.6103 0.789926 12.8703C0.419926 5.59032 6.32994 -0.0596428 13.1799 0.0303572C19.9999 0.120357 25.8299 5.93033 25.1599 13.3803C24.5499 20.3103 18.5999 24.2003 14.0999 24.3503ZM15.1599 23.0904C19.7699 22.3304 24.3499 18.0004 24.1699 11.9004C23.9899 5.62035 18.74 0.800355 12.46 1.09035C6.56997 1.36035 1.37996 6.38035 1.88996 13.1504C2.11996 16.1004 3.38997 18.5703 5.58997 20.5403C7.04997 21.8403 8.73995 22.7203 10.69 23.1003C10.71 23.0003 10.7299 22.9503 10.7299 22.9103C10.7299 20.6603 10.7299 18.4103 10.7399 16.1603C10.7399 15.9103 10.6199 15.8803 10.4199 15.8803C9.66993 15.8903 8.91993 15.8703 8.16993 15.8903C7.90993 15.8903 7.82997 15.8103 7.82997 15.5503C7.83997 14.4403 7.83997 13.3403 7.83997 12.2303C7.83997 11.7303 7.83997 11.7303 8.33997 11.7303C9.11997 11.7303 9.90994 11.7303 10.7399 11.7303C10.7399 11.5203 10.7299 11.3503 10.7399 11.1803C10.7899 10.2603 10.7599 9.33032 10.9199 8.43032C11.2099 6.82032 12.1199 5.64032 13.7199 5.12032C15.3299 4.60032 16.97 4.84035 18.64 5.02035C18.64 6.20035 18.65 7.34031 18.63 8.48031C18.63 8.55031 18.44 8.67031 18.33 8.67031C17.67 8.69031 17 8.68032 16.34 8.68032C15.74 8.68032 15.4999 8.84031 15.3099 9.42031C15.0599 10.1603 15.14 10.9203 15.14 11.7303C16.35 11.7303 17.52 11.7303 18.69 11.7303C18.69 11.8403 18.7 11.9004 18.69 11.9604C18.5 13.1604 18.3 14.3603 18.13 15.5603C18.09 15.8303 17.9799 15.8903 17.7499 15.8803C17.6199 15.8703 17.48 15.8803 17.34 15.8803C16.62 15.8803 15.89 15.8803 15.15 15.8803C15.16 18.3103 15.1599 20.6804 15.1599 23.0904Z" fill="#4D4D4D"/>
</svg>
