<svg width="25" height="26" viewBox="0 0 25 26" fill="none" xmlns="http://www.w3.org/2000/svg">
<path d="M12.3196 25.3899C9.32964 25.3899 6.34962 25.36 3.35962 25.4C1.95962 25.42 0.459626 24.3499 0.179626 22.7499C0.149626 22.5699 0.139648 22.3799 0.139648 22.1999C0.139648 16.1799 0.139648 10.1599 0.139648 4.12994C0.139648 2.48994 1.58962 0.989922 3.23962 0.989922C9.30962 0.979922 15.3897 0.979922 21.4597 0.989922C23.0597 0.989922 24.5297 2.47995 24.5297 4.07995C24.5397 10.1799 24.5397 16.2699 24.5297 22.3699C24.5297 23.8799 23.0897 25.3599 21.5797 25.3699C18.4897 25.3999 15.4096 25.3899 12.3196 25.3899ZM22.7196 13.27C22.7196 10.34 22.7196 7.41992 22.7196 4.48992C22.7196 3.36992 22.1596 2.81994 21.0396 2.81994C15.2396 2.81994 9.42964 2.81994 3.62964 2.81994C2.50964 2.81994 1.94965 3.37992 1.94965 4.48992C1.94965 10.2999 1.94965 16.1199 1.94965 21.9299C1.94965 23.0399 2.47966 23.59 3.58966 23.59C9.41966 23.59 15.2496 23.59 21.0696 23.59C22.1796 23.59 22.7097 23.0499 22.7097 21.9299C22.7197 19.0399 22.7196 16.16 22.7196 13.27Z" fill="#4D4D4D"/>
<path d="M13.2493 10.4298C13.2493 10.9898 13.2493 11.4898 13.2493 12.0598C13.3493 11.9698 13.3993 11.9398 13.4193 11.8998C13.9193 11.0398 14.7093 10.5898 15.6693 10.4698C16.4693 10.3698 17.2893 10.3898 18.0793 10.6298C19.4993 11.0498 20.2493 12.0698 20.5193 13.4498C20.6793 14.2998 20.7493 15.1798 20.7593 16.0498C20.7993 17.8198 20.7693 19.5898 20.7693 21.3598C20.7693 21.4498 20.7593 21.5298 20.7493 21.6498C20.6293 21.6598 20.5093 21.6798 20.3993 21.6798C19.4193 21.6798 18.4293 21.6698 17.4493 21.6898C17.1693 21.6898 17.0693 21.6098 17.0693 21.3198C17.0793 19.7198 17.0793 18.1298 17.0693 16.5298C17.0693 16.1098 17.0593 15.6898 17.0093 15.2798C16.8393 13.9498 16.0793 13.4798 14.6993 13.7298C13.8793 13.8798 13.4093 14.4798 13.3093 15.4098C13.2593 15.8098 13.2393 16.2198 13.2393 16.6198C13.2293 18.1798 13.2393 19.7398 13.2393 21.2998C13.2393 21.4098 13.2393 21.5198 13.2393 21.6598C13.1093 21.6698 12.9993 21.6898 12.8993 21.6898C11.8993 21.6898 10.9092 21.6798 9.90924 21.6998C9.61924 21.6998 9.5293 21.6098 9.5293 21.3198C9.5393 17.8198 9.5393 14.3198 9.5293 10.8098C9.5293 10.5198 9.61924 10.4298 9.90924 10.4298C11.0092 10.4298 12.0993 10.4298 13.2493 10.4298Z" fill="#4D4D4D"/>
<path d="M3.90918 21.6496C3.90918 17.9096 3.90918 14.1896 3.90918 10.4296C4.21918 10.4296 4.50919 10.4296 4.79919 10.4296C5.56919 10.4296 6.3492 10.4496 7.1192 10.4196C7.4892 10.4096 7.59918 10.5196 7.59918 10.8896C7.57918 13.2196 7.58923 15.5596 7.58923 17.8896C7.58923 19.0196 7.57918 20.1496 7.59918 21.2796C7.59918 21.5896 7.49922 21.6796 7.19922 21.6796C6.21922 21.6596 5.22921 21.6796 4.24921 21.6696C4.14921 21.6696 4.03918 21.6596 3.90918 21.6496Z" fill="#4D4D4D"/>
<path d="M3.88974 6.6095C3.87974 5.5795 4.6997 4.76953 5.7297 4.76953C6.7797 4.76953 7.57974 5.58954 7.57974 6.64954C7.57974 7.62954 6.74972 8.46951 5.74972 8.49951C4.75972 8.50951 3.89974 7.6495 3.88974 6.6095Z" fill="#4D4D4D"/>
</svg>
