<svg width="25" height="25" viewBox="0 0 25 25" fill="none" xmlns="http://www.w3.org/2000/svg">
<path d="M0.539917 12.1898C0.539917 10.4898 0.499927 8.79975 0.549927 7.09975C0.609927 5.24975 1.07996 3.5398 2.39996 2.1498C3.43996 1.0498 4.73995 0.449755 6.19995 0.229755C7.06995 0.0997549 7.95997 0.029794 8.83997 0.019794C11.48 -0.000206 14.13 -0.000196235 16.77 0.0298038C17.87 0.0398038 18.9799 0.109757 20.0499 0.419757C22.6299 1.16976 24.4499 3.20979 24.6799 5.88979C24.8599 7.93979 24.88 10.0098 24.89 12.0698C24.9 14.0398 24.8999 16.0097 24.7599 17.9697C24.5099 21.5497 22.1999 23.8298 18.8699 24.2298C17.7499 24.3598 16.6199 24.3798 15.4899 24.3798C12.9299 24.3898 10.3799 24.3798 7.81995 24.3498C6.73995 24.3398 5.65996 24.1898 4.64996 23.7698C2.34996 22.8198 0.979961 21.0698 0.709961 18.6298C0.489961 16.6398 0.529961 14.6098 0.459961 12.5998C0.459961 12.4598 0.459961 12.3298 0.459961 12.1898C0.499961 12.1898 0.519917 12.1898 0.539917 12.1898ZM22.6799 11.6798C22.7299 11.6798 22.7699 11.6798 22.8199 11.6798C22.7499 9.90977 22.74 8.13978 22.59 6.37978C22.44 4.58978 21.5599 3.20978 19.7899 2.62978C18.9299 2.34978 17.99 2.22979 17.08 2.19979C14.82 2.13979 12.5599 2.14976 10.2999 2.16976C9.09993 2.17976 7.88995 2.19975 6.69995 2.34975C4.98995 2.56975 3.68996 3.41977 3.07996 5.11977C2.72996 6.06977 2.67992 7.06977 2.66992 8.05977C2.64992 10.6498 2.64991 13.2498 2.65991 15.8398C2.65991 16.6198 2.71994 17.4098 2.80994 18.1898C3.05994 20.2998 4.36996 21.7298 6.45996 22.0498C7.66996 22.2298 8.90994 22.2698 10.1299 22.2698C12.9299 22.2598 15.73 22.2098 18.53 22.1198C19.5 22.0898 20.39 21.6998 21.14 21.0498C22.28 20.0698 22.6299 18.7598 22.6699 17.3498C22.7099 15.4598 22.6799 13.5698 22.6799 11.6798Z" fill="#4D4D4D"/>
<path d="M6.43971 12.2C6.45971 8.68998 9.21969 5.94999 12.7297 5.95999C16.2097 5.96999 18.9797 8.78997 18.9597 12.32C18.9397 15.73 16.0697 18.5399 12.5597 18.4699C9.0297 18.4099 6.40971 15.52 6.43971 12.2ZM16.7797 12.2199C16.7797 9.94994 14.9397 8.09994 12.6897 8.09994C10.4597 8.09994 8.57971 9.95995 8.56971 12.1699C8.56971 14.4899 10.3997 16.31 12.7097 16.31C14.9797 16.3 16.7897 14.4799 16.7797 12.2199Z" fill="#4D4D4D"/>
<path d="M20.66 5.69964C20.65 6.49964 20.0101 7.13962 19.2001 7.11962C18.4101 7.10962 17.79 6.46962 17.79 5.67962C17.79 4.86962 18.4501 4.21961 19.2401 4.22961C20.0401 4.23961 20.67 4.88964 20.66 5.69964Z" fill="#4D4D4D"/>
</svg>
