<svg width="18" height="29" viewBox="0 0 18 29" fill="none" xmlns="http://www.w3.org/2000/svg">
<path fill-rule="evenodd" clip-rule="evenodd" d="M18.0003 9.50025C17.9003 13.2002 16.7005 16.4002 15.2005 19.5002C13.9005 22.3002 12.3007 24.8002 10.4007 27.3002C9.70072 28.2002 8.70033 28.3002 8.00033 27.3002C4.40033 22.5002 1.40033 17.4002 0.500329 11.3002C-0.0996712 7.40023 1.09994 4.00027 4.59994 1.90027C10.1999 -1.59973 17.4003 2.10022 18.0003 8.60022C18.0003 8.90022 18.0003 9.30025 18.0003 9.50025ZM9.20052 14.3002C11.9005 14.3002 14.0999 12.1003 14.0999 9.40027C14.0999 6.60027 11.9005 4.50025 9.20052 4.50025C6.50052 4.40025 4.30013 6.70027 4.30013 9.40027C4.30013 12.1003 6.50052 14.3002 9.20052 14.3002Z" fill="#9966FF"/>
<path fill-rule="evenodd" clip-rule="evenodd" d="M9.2002 14.3002C6.5002 14.3002 4.2998 12.1002 4.2998 9.40024C4.2998 6.70024 6.5002 4.40021 9.2002 4.50021C11.9002 4.50021 14.0996 6.60024 14.0996 9.40024C14.0996 12.1002 11.9002 14.3002 9.2002 14.3002ZM9.2002 11.6002C10.4002 11.6002 11.5 10.6002 11.5 9.40024C11.5 8.10024 10.5002 7.10019 9.2002 7.10019C8.0002 7.10019 7 8.1002 7 9.3002C6.9 10.6002 8.0002 11.6002 9.2002 11.6002Z" fill="white"/>
<path d="M9.20067 11.5996C8.00067 11.5996 6.90047 10.5996 7.00047 9.29962C7.00047 8.09962 8.00067 7.09961 9.20067 7.09961C10.5007 7.09961 11.5005 8.09966 11.5005 9.39966C11.5005 10.5997 10.4007 11.5996 9.20067 11.5996Z" fill="#9966FF"/>
</svg>
