<svg width="300" height="65" viewBox="0 0 300 65" fill="none" xmlns="http://www.w3.org/2000/svg">
<path d="M92.1599 41.7601C98.7899 41.7601 104.2 36.3502 104.2 29.7202C104.2 23.0402 98.7899 17.6802 92.1599 17.6802H86.1399V32.2502H81.1299V12.6602H92.1599C101.57 12.6602 109.21 20.3002 109.21 29.7102C109.21 39.1202 101.57 46.7601 92.1599 46.7601H81.3299V41.7502H92.1599V41.7601Z" fill="#4D4D4D"/>
<path d="M117.42 37.3597C118.48 40.3997 121.37 42.5697 124.76 42.5697C127.34 42.5697 129.62 41.2997 131.04 39.3797H136.35C134.53 43.9897 130.02 47.2697 124.76 47.2697C117.83 47.2697 112.26 41.6497 112.26 34.7697C112.26 27.8397 117.83 22.2197 124.76 22.2197C131.64 22.2197 137.26 27.8397 137.26 34.7697C137.26 35.6297 137.16 36.5397 136.96 37.3497H132.1H117.42V37.3597ZM132.25 32.6497C131.34 29.3597 128.35 26.9297 124.76 26.9297C121.17 26.9297 118.13 29.3597 117.22 32.6497H132.25Z" fill="#4D4D4D"/>
<path d="M153.05 46.8705H147.13L137.77 22.7305H142.78L150.12 41.4505L157.36 22.7305H162.37L153.05 46.8705Z" fill="#4D4D4D"/>
<path d="M168.03 37.3597C169.09 40.3997 171.98 42.5697 175.37 42.5697C177.95 42.5697 180.23 41.2997 181.65 39.3797H186.96C185.14 43.9897 180.63 47.2697 175.37 47.2697C168.44 47.2697 162.87 41.6497 162.87 34.7697C162.87 27.8397 168.44 22.2197 175.37 22.2197C182.25 22.2197 187.87 27.8397 187.87 34.7697C187.87 35.6297 187.77 36.5397 187.57 37.3497H182.71H168.03V37.3597ZM182.86 32.6497C181.95 29.3597 178.96 26.9297 175.37 26.9297C171.78 26.9297 168.74 29.3597 167.83 32.6497H182.86Z" fill="#4D4D4D"/>
<path d="M195.62 37.0998C195.62 39.8298 197.8 42.0598 200.53 42.0598H202.81V46.7698H200.53C195.22 46.7698 190.91 42.4198 190.91 37.0998V16.5498H195.62V37.0998Z" fill="#4D4D4D"/>
<path d="M215.3 46.8199C208.67 46.8199 203.31 41.4598 203.31 34.8298C203.31 28.1998 208.67 22.8398 215.3 22.8398C221.93 22.8398 227.29 28.1998 227.29 34.8298C227.3 41.4598 221.93 46.8199 215.3 46.8199ZM215.3 27.5398C211.25 27.5398 208.01 30.7798 208.01 34.8298C208.01 38.8798 211.25 42.1198 215.3 42.1198C219.35 42.1198 222.59 38.8798 222.59 34.8298C222.59 30.7798 219.35 27.5398 215.3 27.5398Z" fill="#4D4D4D"/>
<path d="M233.83 43.2305C229.17 38.5705 229.17 30.9305 233.83 26.2805C238.54 21.5705 246.13 21.5705 250.83 26.2805L247.49 29.6206C240.71 22.7906 230.38 33.1105 237.17 39.9405C240 42.7705 244.66 42.7705 247.49 39.9405L250.83 43.2305C246.13 47.9305 238.54 47.9305 233.83 43.2305Z" fill="#4D4D4D"/>
<path d="M258.58 46.7701H253.87V22.8301H258.58V46.7701Z" fill="#4D4D4D"/>
<path d="M266.319 27.5402V37.2102C266.319 39.9402 268.499 42.1201 271.229 42.1201H273.509V46.8302H271.229C265.919 46.8302 261.609 42.5302 261.609 37.2102V16.6602H266.319V22.8302H273.509V27.5402H266.319Z" fill="#4D4D4D"/>
<path d="M281.3 35.5904C281.2 39.5904 283.98 41.7604 286.97 42.1204V46.9304C281.1 46.5304 276.49 41.5704 276.6 35.5904V23.1904H281.31V35.5904H281.3ZM294.31 35.8404V23.1904H299.02V35.9404V42.3704C299.02 49.0004 293.6 54.3604 286.98 54.3604H279.69V49.6504H286.98C290.02 49.6504 294.32 46.6604 294.32 42.3604V35.8404H294.31Z" fill="#4D4D4D"/>
<path d="M30.1897 64.4098L0.959724 37.2198L0.469727 0.329834H32.9597C34.8497 0.269834 48.2297 -0.430168 56.4397 8.49983C61.2297 13.6998 63.8097 18.4998 64.2597 26.6698L52.7497 32.5798C52.7497 27.4098 52.2697 22.2498 47.8497 17.6498C42.7197 12.3098 33.4797 12.8598 33.3897 12.8698L33.0797 12.8798H13.1797L13.4297 31.6898L30.9297 47.9698L65.0197 29.9798L30.1897 64.4098Z" fill="#E3E935"/>
</svg>
