<svg width="23" height="23" viewBox="0 0 23 23" fill="none" xmlns="http://www.w3.org/2000/svg">
<path fill-rule="evenodd" clip-rule="evenodd" d="M12.0004 0.999726C17.8004 0.799726 23.0008 5.99973 22.9008 11.9997C22.8008 17.9997 17.9002 22.7997 11.8002 22.7997C6.00021 22.7997 0.600409 17.7997 1.00041 11.0997C1.30041 5.7997 6.00041 0.899726 12.0004 0.999726ZM13.5004 14.2997C11.7671 13.4997 10.4667 12.2664 9.60002 10.5997C9.60002 10.4997 9.6006 10.2997 9.7006 10.0997C9.9006 9.7997 10.2004 9.49974 10.5004 9.19974C10.8004 8.89974 10.7008 8.59971 10.4008 8.29971C9.8008 7.63305 9.16708 6.99975 8.50041 6.39975C8.30041 6.09975 8.00061 6.09971 7.7006 6.29971C7.00061 6.69971 6.6008 7.19975 6.4008 7.89975C6.06747 9.09975 6.23413 10.233 6.9008 11.2997C8.1008 13.3997 9.8006 15.1997 11.7006 16.4997C12.8006 17.2997 13.9006 17.6997 15.2006 17.5997C16.2006 17.4997 17.0004 17.0997 17.5004 16.1997C17.7004 15.8997 17.7008 15.5997 17.4008 15.2997C16.8008 14.6997 16.2 14.0664 15.6 13.3997C15.2 13.0997 14.9004 13.0997 14.5004 13.3997C14.1671 13.6664 13.8337 13.9664 13.5004 14.2997Z" fill="#9966FF"/>
<path d="M13.4997 14.2995C13.833 13.9662 14.1663 13.6662 14.4997 13.3996C14.8997 13.0996 15.1993 13.0996 15.5993 13.3996C16.1993 14.0662 16.8001 14.6995 17.4001 15.2995C17.7001 15.5995 17.6997 15.8996 17.4997 16.1996C16.9997 17.0996 16.1999 17.4995 15.1999 17.5995C13.8999 17.6995 12.7999 17.2995 11.6999 16.4995C9.79987 15.1995 8.10007 13.3995 6.90007 11.2995C6.2334 10.2329 6.06673 9.09957 6.40007 7.89956C6.60007 7.19956 6.99987 6.69953 7.69987 6.29953C7.99987 6.09953 8.29967 6.09957 8.49967 6.39957C9.16634 6.99957 9.80007 7.63286 10.4001 8.29953C10.7001 8.59953 10.7997 8.89955 10.4997 9.19955C10.1997 9.49955 9.89987 9.79952 9.69987 10.0995C9.59987 10.2995 9.59928 10.4995 9.59928 10.5995C10.466 12.2662 11.7663 13.4995 13.4997 14.2995Z" fill="white"/>
</svg>
