<svg width="299" height="65" viewBox="0 0 299 65" fill="none" xmlns="http://www.w3.org/2000/svg">
<path d="M92.2 41.8002C98.8 41.8002 104.2 36.3002 104.2 29.7002C104.2 23.0002 98.8 17.7002 92.2 17.7002H86.1001V32.2002H81.1001V12.7002H92.2C101.6 12.7002 109.2 20.3002 109.2 29.7002C109.2 39.1002 101.6 46.8002 92.2 46.8002H81.3V41.8002H92.2Z" fill="#4D4D4D"/>
<path fill-rule="evenodd" clip-rule="evenodd" d="M117.4 37.4002C118.5 40.4002 121.4 42.6002 124.8 42.6002C127.3 42.6002 129.6 41.3002 131 39.4002H136.3C134.5 44.0002 130 47.3002 124.8 47.3002C117.8 47.3002 112.3 41.7002 112.3 34.8002C112.3 27.8002 117.8 22.2002 124.8 22.2002C131.6 22.2002 137.3 27.8002 137.3 34.8002C137.3 35.6002 137.2 36.5002 137 37.4002H117.4ZM132.2 32.7002C131.3 29.4002 128.3 26.9002 124.7 26.9002C121.1 26.9002 118.1 29.4002 117.2 32.7002H132.2Z" fill="#4D4D4D"/>
<path d="M153 46.9002H147.1L137.8 22.7002H142.8L150.1 41.5002L157.4 22.7002H162.4L153 46.9002Z" fill="#4D4D4D"/>
<path fill-rule="evenodd" clip-rule="evenodd" d="M168 37.4002C169.1 40.4002 172 42.6002 175.4 42.6002C178 42.6002 180.2 41.3002 181.6 39.4002H187C185.1 44.0002 180.6 47.3002 175.4 47.3002C168.4 47.3002 162.9 41.7002 162.9 34.8002C162.9 27.8002 168.4 22.2002 175.4 22.2002C182.3 22.2002 187.9 27.8002 187.9 34.8002C187.9 35.6002 187.8 36.5002 187.6 37.4002H168ZM182.8 32.7002C181.9 29.4002 178.9 26.9002 175.3 26.9002C171.7 26.9002 168.7 29.4002 167.8 32.7002H182.8Z" fill="#4D4D4D"/>
<path d="M195.6 37.0996C195.6 39.7996 197.8 42.0996 200.5 42.0996H202.8V46.7996H200.5C195.2 46.7996 190.9 42.3996 190.9 37.0996V16.5996H195.6V37.0996Z" fill="#4D4D4D"/>
<path fill-rule="evenodd" clip-rule="evenodd" d="M215.3 46.7998C208.7 46.7998 203.3 41.4998 203.3 34.7998C203.3 28.1998 208.7 22.7998 215.3 22.7998C221.9 22.7998 227.3 28.1998 227.3 34.7998C227.3 41.4998 221.9 46.7998 215.3 46.7998ZM215.3 27.4998C211.3 27.4998 208 30.7998 208 34.7998C208 38.8998 211.3 42.0998 215.3 42.0998C219.4 42.0998 222.6 38.8998 222.6 34.7998C222.6 30.7998 219.4 27.4998 215.3 27.4998Z" fill="#4D4D4D"/>
<path d="M233.8 43.2004C229.2 38.6004 229.2 30.9004 233.8 26.3004C238.5 21.6004 246.1 21.6004 250.8 26.3004L247.5 29.6004C240.7 22.8004 230.4 33.1004 237.2 39.9004C240 42.8004 244.7 42.8004 247.5 39.9004L250.8 43.2004C246.1 47.9004 238.5 47.9004 233.8 43.2004Z" fill="#4D4D4D"/>
<path d="M258.6 46.7998H253.9V22.7998H258.6V46.7998Z" fill="#4D4D4D"/>
<path d="M266.3 27.5002V37.2002C266.3 39.9002 268.5 42.1002 271.2 42.1002H273.5V46.8002H271.2C265.9 46.8002 261.6 42.5002 261.6 37.2002V16.7002H266.3V22.8002H273.5V27.5002H266.3Z" fill="#4D4D4D"/>
<path d="M281.3 35.6002C281.2 39.6002 284 41.8002 287 42.1002V46.9002C281.1 46.5002 276.5 41.6002 276.6 35.6002V23.2002H281.3V35.6002ZM294.3 35.8002V23.2002H299V35.9002V42.4002C299 49.0002 293.6 54.4002 287 54.4002H279.7V49.7002H287C290 49.7002 294.3 46.7002 294.3 42.4002V35.8002Z" fill="#4D4D4D"/>
<path d="M30.2 64.4L1 37.2L0.5 0.300042H33C34.8 0.300042 48.1999 -0.399961 56.3999 8.50004C61.1999 13.7 63.8 18.5 64.3 26.7L52.8 32.6C52.8 27.4 52.2999 22.2 47.8999 17.6C42.6999 12.3 33.4999 12.9 33.3999 12.9H33.1001H13.2L13.3999 31.7L30.8999 48L65 30L30.2 64.4Z" fill="#9966FF"/>
</svg>
