<svg width="56" height="56" viewBox="0 0 56 56" fill="none" xmlns="http://www.w3.org/2000/svg">
<path fill-rule="evenodd" clip-rule="evenodd" d="M27.7998 55.8004C12.9998 56.2004 0.399805 43.7004 0.299805 28.5004C0.299805 13.3004 13.1 0.600409 28.5 1.00041C43.4 1.40041 55.7998 13.9004 55.2998 29.4004C54.7998 43.9004 42.5998 56.2004 27.7998 55.8004ZM18 51.3004C19.8 49.5004 21.4999 47.6004 23.3999 45.9004C24.3999 45.0004 24.5998 44.0004 24.7998 42.7004C25.0998 39.5004 24.0002 37.3004 21.7002 35.2004C17.7002 31.6004 17.8 31.4004 12.5 31.7004C12.1 31.7004 11.5999 31.8004 11.3999 32.0004C9.1999 34.1004 7.1 36.2004 5 38.4004C7.6 44.4004 11.9 48.6004 18 51.3004ZM14.2002 29.1004C15.0002 29.1004 15.3998 29.0004 15.7998 29.1004C17.2998 29.4004 18.0998 28.7004 18.7998 27.4004C19.7998 25.5004 21.1001 23.7004 22.1001 21.7004C22.4001 21.2004 22.6 20.5004 22.5 19.9004C22.2 17.9004 21.6999 15.9004 21.3999 13.9004C21.1999 13.1004 20.8 12.7004 20 12.4004C17.6 11.6671 15.1998 10.8671 12.7998 10.0004C11.8998 9.70041 11.3002 9.90041 10.7002 10.5004C7.8002 13.3004 5.5999 16.6004 4.3999 20.5004C4.1999 20.9004 4.3998 21.7004 4.7998 22.1004C6.3998 23.8004 8.1002 25.3004 9.7002 27.1004C11.0002 28.6004 12.5002 29.6004 14.2002 29.1004ZM27.3999 41.6004C26.5999 43.9004 27.9 45.5004 29.5 46.9004C31.1 48.3004 32.6001 49.9004 34.1001 51.5004C34.7001 52.1004 35.3001 52.2004 36.1001 51.9004C40.0001 50.5004 43.2 48.3004 46 45.4004C46.3 45.0004 46.3998 44.3004 46.2998 43.8004C45.5998 41.4004 44.6999 38.9004 43.8999 36.5004C43.5999 35.5004 43.1001 35.0004 42.1001 34.9004C40.0001 34.5004 37.7002 33.5004 35.7002 33.8004C33.6002 34.1004 31.8999 35.9004 29.8999 36.9004C27.7999 37.9004 26.6999 39.1004 27.3999 41.6004ZM52.6001 27.6004C52.7334 27.5337 52.8667 27.5004 53 27.5004C52.3 24.7004 51.5998 21.9004 50.7998 19.2004C50.5998 18.7004 49.8999 18.2004 49.3999 18.1004C46.9999 17.7004 44.6002 17.3671 42.2002 17.1004C41.7002 17.0004 40.9 17.3004 40.5 17.6004C38.9 19.2004 37.3001 20.9004 35.6001 22.5004C35.0001 23.1004 34.8 23.7004 35 24.6004C35.4 26.3004 35.8 28.0004 36 29.7004C36.2 30.8004 36.7002 31.1004 37.7002 31.4004C42.1002 32.7004 46.3 32.7004 50.5 30.7004C52.6 29.7004 52.7001 29.9004 52.6001 27.6004ZM29 3.3004C27.9 3.7004 26.4998 3.8004 26.2998 4.3004C24.7998 8.2004 22.8 12.0004 24.5 16.3004C24.8 17.1004 24.9 18.0004 25 18.8004C25.1 19.7004 25.3998 20.1004 26.2998 20.2004C28.1998 20.5004 29.8998 21.0004 31.7998 21.3004C32.3998 21.3004 33.2002 21.1004 33.7002 20.7004C35.4002 19.1004 37.1002 17.4004 38.7002 15.7004C39.0002 15.4004 39.3002 14.7004 39.2002 14.2004C38.9335 11.7338 38.6002 9.26706 38.2002 6.8004C38.1002 6.3004 37.6002 5.70038 37.2002 5.60038C34.5002 4.70038 31.7 4.0004 29 3.3004ZM20.3999 29.9004C22.3999 31.9004 24.3999 33.9004 26.3999 35.9004C28.4999 34.7004 30.8 33.3004 33 31.9004C33.3 31.7004 33.6001 31.1004 33.6001 30.8004C33.2668 28.8004 32.8666 26.8338 32.3999 24.9004C32.2999 24.5004 31.7999 24.0004 31.3999 23.9004C29.4666 23.4338 27.5334 23.0338 25.6001 22.7004C25.2001 22.7004 24.5999 22.9004 24.3999 23.2004C22.9999 25.5004 21.5999 27.8004 20.3999 29.9004ZM31.6001 53.0004C29.6001 51.1004 27.7002 49.2004 26.2002 47.6004C24.5002 49.2004 22.8002 50.8004 21.2002 52.4004C24.5002 53.4004 28.0001 53.7004 31.6001 53.0004ZM3.8999 35.3004C5.6999 33.5004 7.4002 31.9004 8.7002 30.6004C6.8002 28.8004 4.9002 26.9004 3.2002 25.1004C2.6002 28.4004 2.8999 31.9004 3.8999 35.3004ZM48.7998 15.3004C46.6998 12.0004 44.2 9.50041 41 7.50041C41.3 9.70041 41.4999 11.7004 41.8999 13.6004C41.8999 13.9004 42.3998 14.4004 42.7998 14.5004C44.6998 14.8004 46.5998 15.0004 48.7998 15.3004ZM23.3999 4.10038C19.4999 4.80038 15.9999 6.2004 14.3999 7.8004C16.6999 8.6004 18.9999 9.30038 21.3999 10.1004C22.0999 8.10038 22.6999 6.20039 23.3999 4.10038ZM46.1001 34.9004C47.0001 37.3004 47.7001 39.6004 48.6001 42.1004C50.5001 39.1004 51.7002 36.3004 52.2002 32.9004C50.1002 33.6004 48.2001 34.2004 46.1001 34.9004Z" fill="#9966FF"/>
</svg>
