<?xml version="1.0" encoding="utf-8"?>
<svg xmlns="http://www.w3.org/2000/svg" width="256" height="256" viewBox="0 0 500 500">
<path fill="#FFBE40" d="M252.504,499.993C114.438,501.028,1.67,389.944,0.63,251.878 C-0.405,113.812,110.678,1.048,248.744,0.008c138.071-1.04,250.833,110.044,251.869,248.11c0.01,0.625,0.01,1.25,0.01,1.875 C500.974,387.474,389.979,499.31,252.504,499.993z M252.504,37.093C134.921,36.243,38.911,130.872,38.062,248.46 c-0.854,117.578,93.778,213.594,211.361,214.443c117.587,0.85,213.592-93.779,214.442-211.367c0-0.513,0.01-1.025,0.01-1.543 C464.147,132.894,369.607,37.659,252.504,37.093z M261.424,215.696l47.9-58.604c5.029-6.162,4.111-15.234-2.061-20.264 c-2.48-2.031-5.586-3.174-8.799-3.237l0,0c-4.189,0.024-8.174,1.89-10.869,5.103l-44.55,54.395l-44.561-54.395 c-2.651-3.276-6.65-5.156-10.859-5.103h-36.763c-7.905,0.073-14.263,6.538-14.189,14.448c0.029,3.311,1.206,6.514,3.33,9.053 l66.279,81.001l-84.658,103.599c-5.2,5.898-4.639,14.902,1.265,20.098c5.898,5.205,14.897,4.639,20.097-1.26 c0.127-0.146,0.249-0.283,0.366-0.439l81.309-99.297L261.424,215.696z M372.518,133.597c-4.18,0.029-8.154,1.895-10.859,5.098 l-80.996,99.399l-36.757,45.005l-47.9,58.594c-5.083,5.996-4.341,14.98,1.66,20.059c5.996,5.088,14.976,4.346,20.059-1.66 l44.56-54.297l44.551,54.297c2.656,3.281,6.66,5.156,10.869,5.107h36.689c7.891-0.049,14.258-6.494,14.219-14.385 c-0.02-3.34-1.211-6.563-3.359-9.121l-66.27-80.898l84.658-103.701c4.98-6.27,3.936-15.381-2.334-20.361 c-2.51-1.992-5.605-3.096-8.809-3.14"/>
</svg>
